<svg version="1.1" xmlns="http://www.w3.org/2000/svg" xmlns:xlink="http://www.w3.org/1999/xlink" width="72" height="72" viewBox="0,0,256,256"><g fill="none" fill-rule="nonzero" stroke="#7ae778" stroke-width="none" stroke-linecap="round" stroke-linejoin="round" stroke-miterlimit="10" stroke-dasharray="" stroke-dashoffset="0" font-family="none" font-weight="none" font-size="none" text-anchor="none" style="mix-blend-mode: normal"><g transform="translate(-1.17871,-8.7361) scale(3.55556,3.55556)"><path d="M6.75,60.75h40.5" stroke-width="5.33333"></path><path d="M4.75312,39.4874l10.60308,9.9282c1.4138,1.3253 3.2177,2.1589 5.1433,2.3768c1.9255,0.2179 3.87,-0.1916 5.5442,-1.1675l42.5813,-24.75l-5.2313,-6.4125c-1.3608,-1.662 -3.2711,-2.7824 -5.3859,-3.159c-2.1148,-0.3765 -4.2945,0.0158 -6.1453,1.1059l-12.4875,7.3406l-16.875,-5.625l-4.6406,1.9969c-0.3472,0.1488 -0.6514,0.3826 -0.8844,0.6799c-0.2331,0.2972 -0.3875,0.6484 -0.4492,1.021c-0.0616,0.3727 -0.0285,0.7549 0.0965,1.1113c0.1249,0.3565 0.3375,0.6758 0.6183,0.9284l8.6344,7.7625l-7.875,4.5l-7.875,-3.375l-4.72501,2.025c-0.34376,0.1477 -0.64527,0.3788 -0.87725,0.6723c-0.23198,0.2935 -0.3871,0.6403 -0.45132,1.0089c-0.06422,0.3685 -0.03552,0.7473 0.08351,1.102c0.11903,0.3547 0.32463,0.6741 0.59819,0.9293z" stroke-width="5.33"></path></g></g></svg>